<svg width="120" height="120" viewBox="0 0 120 120" fill="none" xmlns="http://www.w3.org/2000/svg">
<path d="M47.7273 78.4773C45.2727 78.4773 43.1761 77.7727 41.4375 76.3636C39.7102 74.9432 38.3807 72.892 37.4489 70.2102C36.5284 67.5284 36.0682 64.3068 36.0682 60.5455C36.0682 56.7955 36.5284 53.5852 37.4489 50.9148C38.3807 48.233 39.7159 46.1818 41.4545 44.7614C43.2045 43.3295 45.2955 42.6136 47.7273 42.6136C50.1591 42.6136 52.2443 43.3295 53.983 44.7614C55.733 46.1818 57.0682 48.233 57.9886 50.9148C58.9205 53.5852 59.3864 56.7955 59.3864 60.5455C59.3864 64.3068 58.9205 67.5284 57.9886 70.2102C57.0682 72.892 55.7386 74.9432 54 76.3636C52.2727 77.7727 50.1818 78.4773 47.7273 78.4773ZM47.7273 75.6136C50.4205 75.6136 52.5227 74.3011 54.0341 71.6761C55.5455 69.0398 56.3011 65.3295 56.3011 60.5455C56.3011 57.3636 55.9545 54.6477 55.2614 52.3977C54.5795 50.1364 53.5966 48.4091 52.3125 47.2159C51.0398 46.0227 49.5114 45.4261 47.7273 45.4261C45.0568 45.4261 42.9602 46.7557 41.4375 49.4148C39.9148 52.0625 39.1534 55.7727 39.1534 60.5455C39.1534 63.7273 39.4943 66.4432 40.1761 68.6932C40.8693 70.9432 41.8523 72.6591 43.125 73.8409C44.4091 75.0227 45.9432 75.6136 47.7273 75.6136ZM66.3239 78V75.6648L77.7273 62.8466C79.2159 61.1648 80.4148 59.7273 81.3239 58.5341C82.233 57.3409 82.892 56.2386 83.3011 55.2273C83.7216 54.2159 83.9318 53.1648 83.9318 52.0739C83.9318 50.7443 83.6193 49.5852 82.9943 48.5966C82.3807 47.5966 81.5341 46.8182 80.4545 46.2614C79.375 45.7045 78.1591 45.4261 76.8068 45.4261C75.375 45.4261 74.1193 45.733 73.0398 46.3466C71.9716 46.9602 71.142 47.8011 70.5511 48.8693C69.9602 49.9375 69.6648 51.1648 69.6648 52.5511H66.6136C66.6136 50.6193 67.0568 48.9091 67.9432 47.4205C68.8409 45.9205 70.0625 44.7443 71.608 43.892C73.1648 43.0398 74.9261 42.6136 76.892 42.6136C78.8352 42.6136 80.5625 43.0341 82.0739 43.875C83.5852 44.7045 84.7727 45.8352 85.6364 47.267C86.5 48.6989 86.9318 50.3011 86.9318 52.0739C86.9318 53.358 86.7045 54.6023 86.25 55.8068C85.8068 57.0114 85.0398 58.3523 83.9489 59.8295C82.858 61.3068 81.3466 63.1136 79.4148 65.25L70.7557 74.9148V75.1364H88.0227V78H66.3239Z" fill="#00D4C1"/>
<circle cx="60" cy="60" r="57.5" stroke="#00D4C1" stroke-width="5"/>
</svg>
