<svg width="120" height="120" viewBox="0 0 120 120" fill="none" xmlns="http://www.w3.org/2000/svg">
<path d="M47.4 79.8C50.312 79.8 52.44 78.696 53.784 76.488C55.128 74.248 55.8 71.08 55.8 66.984V61.512C55.8 57.416 55.128 54.264 53.784 52.056C52.44 49.816 50.312 48.696 47.4 48.696C44.488 48.696 42.36 49.816 41.016 52.056C39.672 54.264 39 57.416 39 61.512V66.984C39 71.08 39.672 74.248 41.016 76.488C42.36 78.696 44.488 79.8 47.4 79.8ZM47.4 81.576C43.688 81.576 40.824 80.152 38.808 77.304C36.824 74.456 35.832 70.104 35.832 64.248C35.832 58.392 36.824 54.04 38.808 51.192C40.824 48.344 43.688 46.92 47.4 46.92C51.112 46.92 53.96 48.344 55.944 51.192C57.96 54.04 58.968 58.392 58.968 64.248C58.968 70.104 57.96 74.456 55.944 77.304C53.96 80.152 51.112 81.576 47.4 81.576ZM74.8373 81.576C73.4293 81.576 72.1333 81.416 70.9493 81.096C69.7653 80.776 68.7573 80.36 67.9253 79.848C67.0933 79.336 66.4373 78.76 65.9573 78.12C65.5093 77.448 65.2853 76.76 65.2853 76.056C65.2853 75.32 65.4933 74.728 65.9093 74.28C66.3573 73.832 66.9333 73.608 67.6373 73.608C68.3413 73.608 68.8853 73.832 69.2693 74.28C69.6853 74.728 69.8933 75.272 69.8933 75.912C69.8933 76.456 69.7493 76.936 69.4613 77.352C69.1733 77.736 68.8053 78.024 68.3573 78.216V78.36C68.9333 78.776 69.7333 79.128 70.7573 79.416C71.8133 79.672 73.0613 79.8 74.5013 79.8C77.0613 79.8 79.1093 79.192 80.6453 77.976C82.1813 76.728 82.9493 75 82.9493 72.792V71.256C82.9493 69.144 82.2453 67.464 80.8373 66.216C79.4613 64.968 77.4773 64.344 74.8853 64.344H70.8533V62.568H74.6453C77.0453 62.568 78.9013 61.992 80.2133 60.84C81.5573 59.656 82.2293 58.152 82.2293 56.328V54.696C82.2293 52.776 81.5733 51.304 80.2613 50.28C78.9493 49.224 77.2373 48.696 75.1253 48.696C73.7493 48.696 72.5653 48.84 71.5733 49.128C70.5813 49.416 69.7973 49.768 69.2213 50.184V50.28C69.6373 50.472 70.0053 50.776 70.3253 51.192C70.6453 51.608 70.8053 52.088 70.8053 52.632C70.8053 53.272 70.5813 53.832 70.1333 54.312C69.7173 54.76 69.1573 54.984 68.4533 54.984C67.7493 54.984 67.1893 54.76 66.7733 54.312C66.3893 53.832 66.1973 53.224 66.1973 52.488C66.1973 51.816 66.4213 51.16 66.8693 50.52C67.3173 49.848 67.9253 49.256 68.6933 48.744C69.4933 48.2 70.4533 47.768 71.5733 47.448C72.6933 47.096 73.9253 46.92 75.2693 46.92C76.6773 46.92 78.0053 47.112 79.2533 47.496C80.5013 47.848 81.5733 48.376 82.4693 49.08C83.3973 49.784 84.1173 50.664 84.6293 51.72C85.1733 52.776 85.4453 53.976 85.4453 55.32C85.4453 56.44 85.2533 57.448 84.8693 58.344C84.4853 59.24 83.9733 60.024 83.3333 60.696C82.6933 61.336 81.9413 61.88 81.0773 62.328C80.2453 62.744 79.3493 63.048 78.3893 63.24V63.384C79.4133 63.544 80.3893 63.848 81.3173 64.296C82.2453 64.744 83.0613 65.336 83.7653 66.072C84.5013 66.776 85.0773 67.624 85.4933 68.616C85.9413 69.576 86.1653 70.68 86.1653 71.928C86.1653 73.432 85.8773 74.776 85.3013 75.96C84.7573 77.144 83.9893 78.152 82.9973 78.984C82.0053 79.816 80.8053 80.456 79.3973 80.904C78.0213 81.352 76.5013 81.576 74.8373 81.576Z" fill="#00D4C1"/>
<circle cx="60" cy="60" r="57.5" stroke="#00D4C1" stroke-width="5"/>
</svg>
