<svg width="120" height="120" viewBox="0 0 120 120" fill="none" xmlns="http://www.w3.org/2000/svg">
<path d="M46.4 73.8C49.312 73.8 51.44 72.696 52.784 70.488C54.128 68.248 54.8 65.08 54.8 60.984V55.512C54.8 51.416 54.128 48.264 52.784 46.056C51.44 43.816 49.312 42.696 46.4 42.696C43.488 42.696 41.36 43.816 40.016 46.056C38.672 48.264 38 51.416 38 55.512V60.984C38 65.08 38.672 68.248 40.016 70.488C41.36 72.696 43.488 73.8 46.4 73.8ZM46.4 75.576C42.688 75.576 39.824 74.152 37.808 71.304C35.824 68.456 34.832 64.104 34.832 58.248C34.832 52.392 35.824 48.04 37.808 45.192C39.824 42.344 42.688 40.92 46.4 40.92C50.112 40.92 52.96 42.344 54.944 45.192C56.96 48.04 57.968 52.392 57.968 58.248C57.968 64.104 56.96 68.456 54.944 71.304C52.96 74.152 50.112 75.576 46.4 75.576ZM65.4373 73.32H74.6053V43.992L65.0533 48.792L64.4293 47.256L74.9413 41.496H77.5333V73.32H86.3173V75H65.4373V73.32Z" fill="#00D4C1"/>
<circle cx="60" cy="60" r="57.5" stroke="#00D4C1" stroke-width="5"/>
</svg>
