<svg width="120" height="120" viewBox="0 0 120 120" fill="none" xmlns="http://www.w3.org/2000/svg">
<path d="M45.4 74.8C48.312 74.8 50.44 73.696 51.784 71.488C53.128 69.248 53.8 66.08 53.8 61.984V56.512C53.8 52.416 53.128 49.264 51.784 47.056C50.44 44.816 48.312 43.696 45.4 43.696C42.488 43.696 40.36 44.816 39.016 47.056C37.672 49.264 37 52.416 37 56.512V61.984C37 66.08 37.672 69.248 39.016 71.488C40.36 73.696 42.488 74.8 45.4 74.8ZM45.4 76.576C41.688 76.576 38.824 75.152 36.808 72.304C34.824 69.456 33.832 65.104 33.832 59.248C33.832 53.392 34.824 49.04 36.808 46.192C38.824 43.344 41.688 41.92 45.4 41.92C49.112 41.92 51.96 43.344 53.944 46.192C55.96 49.04 56.968 53.392 56.968 59.248C56.968 65.104 55.96 69.456 53.944 72.304C51.96 75.152 49.112 76.576 45.4 76.576ZM78.3093 68.272H61.8453V66.256L78.3093 42.496H81.0933V66.064H86.2292V68.272H81.0933V76H78.3093V68.272ZM64.0053 66.064H78.3093V45.712H78.1173L64.0053 66.064Z" fill="#00D4C1"/>
<circle cx="60" cy="60" r="57.5" stroke="#00D4C1" stroke-width="5"/>
</svg>
